<svg width="600" height="600" xmlns="http://www.w3.org/2000/svg">

 <g>
  <title>Layer 1</title>
  <text transform="matrix(1 0 0 1 0 0)" id="svg_1" dominant-baseline="middle" text-anchor="middle" font-family="'Lemonada'" fill="#ff6600" font-size="120" y="493" x="300">PTools</text>
  <path stroke="null" id="svg_6" d="m442.43134,202.34605c-14.20401,-77.15228 -82.16962,-135.65793 -164.05335,-135.65793l0,59.6692c58.93763,0.0895 106.60533,47.37735 106.74075,105.82333c-0.13542,58.43107 -47.80313,105.68907 -106.74075,105.80841l0,59.69904c81.88373,-0.05967 149.84933,-58.56532 164.05335,-135.68776l70.56867,0l0,-59.65428l-70.56867,0zm-70.49344,29.8346c0,-51.24093 -41.8898,-92.77069 -93.57496,-92.77069c-41.12242,0 -75.98545,26.34395 -88.53434,62.92117l-102.82863,0l0,59.68412l102.82863,0c12.53384,36.57722 47.39687,62.93609 88.53434,62.93609c51.68515,0 93.57496,-41.54468 93.57496,-92.77069z" stroke-dasharray="5,2,2,2,2,2" fill="#ff7f00"/>
  <path transform="rotate(45 278.998 232.055)" stroke="null" stroke-dasharray="5,2,2,2,2,2" id="svg_3" d="m279.91223,139.55248c25.4225,0 46.04669,20.73129 46.04669,46.26123c0,25.52995 -20.62419,46.24129 -46.04669,46.24129c-25.42251,0 -46.0467,20.73131 -46.0467,46.26124c0,25.52994 20.62419,46.24129 46.0467,46.24129c50.845,0 92.11323,-41.44266 92.11323,-92.50253c0,-51.05988 -41.26823,-92.50251 -92.11323,-92.50251l0,0.00001zm0,31.80459c-7.94862,0 -14.39581,6.47441 -14.39581,14.45663c0,7.98224 6.44717,14.45663 14.39581,14.45663c7.94863,0 14.39579,-6.47441 14.39579,-14.45663c0,-7.98222 -6.44716,-14.45663 -14.39579,-14.45663zm0,92.50253c7.94452,0 14.39579,6.47852 14.39579,14.45663c0,7.97809 -6.45126,14.45664 -14.39579,14.45664c-7.94453,0 -14.39581,-6.47855 -14.39581,-14.45664c0,-7.97809 6.45128,-14.45663 14.39581,-14.45663zm90.0472,-31.74567c0,51.02194 -41.18738,92.3834 -91.99464,92.3834c-50.80724,0 -91.99464,-41.36146 -91.99464,-92.3834c0,-51.02196 41.18741,-92.38343 91.99464,-92.38343c50.80726,0 91.99464,41.36147 91.99464,92.38343z" fill="#007f7f"/>
 </g>
</svg>